<svg width="35" height="36" viewBox="0 0 35 36" fill="none" xmlns="http://www.w3.org/2000/svg">
<path d="M12 26C12 23.7909 13.7909 22 16 22H19C21.2091 22 23 23.7909 23 26V27H12V26Z" fill="white"/>
<path d="M11.6669 6.33366V3.41699M23.3335 6.33366V3.41699M17.5002 32.5837C11.6567 32.5837 8.73562 32.5837 6.91999 30.6616C5.10437 28.7395 5.10437 25.6449 5.10437 19.4587C5.10437 13.2724 5.10437 10.1778 6.91999 8.25574C8.73562 6.33366 11.6567 6.33366 17.5002 6.33366C23.3437 6.33366 26.2648 6.33366 28.0804 8.25574C29.896 10.1778 29.896 13.2724 29.896 19.4587C29.896 25.6449 29.896 28.7395 28.0804 30.6616C26.2648 32.5837 23.3437 32.5837 17.5002 32.5837Z" stroke="#1E1E1E" stroke-width="1.5" stroke-linecap="round" stroke-linejoin="round"/>
<path d="M20.4429 14.3444C20.4429 15.1179 20.1356 15.8598 19.5886 16.4068C19.0416 16.9538 18.2997 17.2611 17.5262 17.2611C16.7527 17.2611 16.0108 16.9538 15.4638 16.4068C14.9168 15.8598 14.6095 15.1179 14.6095 14.3444C14.6095 13.5709 14.9168 12.829 15.4638 12.282C16.0108 11.735 16.7527 11.4277 17.5262 11.4277C18.2997 11.4277 19.0416 11.735 19.5886 12.282C20.1356 12.829 20.4429 13.5709 20.4429 14.3444ZM11.7585 24.8779C13.3014 22.5009 15.7529 21.6113 17.5262 21.6127C19.2995 21.6142 21.6795 22.5023 23.2225 24.8794C23.3216 25.0325 23.3493 25.2207 23.2589 25.3811C22.8987 26.0213 21.7772 27.2915 20.9693 27.3775C20.0389 27.4752 17.605 27.4898 17.5277 27.4898C17.4504 27.4898 14.9435 27.4752 14.0131 27.3775C13.2022 27.29 12.0822 26.0213 11.7206 25.3796C11.6316 25.2207 11.6593 25.0325 11.7585 24.8779Z" stroke="#1E1E1E" stroke-width="1.5" stroke-linecap="round" stroke-linejoin="round"/>
<circle cx="17.5" cy="14.5" r="2.5" fill="#F7F7F7"/>
</svg>
